<svg width="103" height="20" viewBox="0 0 103 20" fill="none" xmlns="http://www.w3.org/2000/svg">
<path d="M0.728 19V1.12H3.848L10.544 10.216H9.056L15.608 1.12H18.728V19H15.44V4.84L16.712 5.152L9.92 14.2H9.536L2.912 5.152L3.992 4.84V19H0.728ZM30.9579 19.288C29.6459 19.288 28.4219 19.056 27.2859 18.592C26.1499 18.128 25.1579 17.48 24.3099 16.648C23.4619 15.816 22.7979 14.84 22.3179 13.72C21.8539 12.584 21.6219 11.36 21.6219 10.048C21.6219 8.72 21.8539 7.496 22.3179 6.376C22.7819 5.256 23.4379 4.28 24.2859 3.448C25.1339 2.616 26.1259 1.976 27.2619 1.528C28.3979 1.064 29.6299 0.831999 30.9579 0.831999C32.2859 0.831999 33.5179 1.064 34.6539 1.528C35.7899 1.992 36.7819 2.64 37.6299 3.472C38.4779 4.288 39.1339 5.256 39.5979 6.376C40.0779 7.496 40.3179 8.72 40.3179 10.048C40.3179 11.36 40.0779 12.584 39.5979 13.72C39.1179 14.84 38.4539 15.816 37.6059 16.648C36.7579 17.48 35.7659 18.128 34.6299 18.592C33.5099 19.056 32.2859 19.288 30.9579 19.288ZM30.9579 16.312C31.8379 16.312 32.6459 16.16 33.3819 15.856C34.1179 15.536 34.7579 15.096 35.3019 14.536C35.8619 13.976 36.2859 13.312 36.5739 12.544C36.8779 11.776 37.0299 10.944 37.0299 10.048C37.0299 9.152 36.8779 8.328 36.5739 7.576C36.2859 6.808 35.8619 6.144 35.3019 5.584C34.7579 5.008 34.1179 4.568 33.3819 4.264C32.6459 3.96 31.8379 3.808 30.9579 3.808C30.0939 3.808 29.2939 3.96 28.5579 4.264C27.8219 4.568 27.1739 5.008 26.6139 5.584C26.0699 6.144 25.6459 6.808 25.3419 7.576C25.0379 8.328 24.8859 9.152 24.8859 10.048C24.8859 10.944 25.0379 11.776 25.3419 12.544C25.6459 13.312 26.0699 13.976 26.6139 14.536C27.1739 15.096 27.8219 15.536 28.5579 15.856C29.2939 16.16 30.0939 16.312 30.9579 16.312ZM43.2202 19V1.12H49.8682C51.0842 1.12 52.1562 1.344 53.0842 1.792C54.0282 2.224 54.7642 2.864 55.2922 3.712C55.8202 4.544 56.0842 5.56 56.0842 6.76C56.0842 7.992 55.7882 9.04 55.1962 9.904C54.6202 10.768 53.8362 11.408 52.8442 11.824L56.9482 19H53.2522L48.8602 11.152L50.9722 12.4H46.4842V19H43.2202ZM46.4842 9.52H49.9162C50.5082 9.52 51.0202 9.408 51.4522 9.184C51.8842 8.944 52.2202 8.616 52.4602 8.2C52.7002 7.784 52.8202 7.304 52.8202 6.76C52.8202 6.2 52.7002 5.72 52.4602 5.32C52.2202 4.904 51.8842 4.584 51.4522 4.36C51.0202 4.12 50.5082 4 49.9162 4H46.4842V9.52ZM59.0874 19V1.12H70.9674V4H62.3514V8.584H70.4874V11.464H62.3514V16.12H70.9674V19H59.0874ZM73.3608 19V1.12H75.9048L85.7448 14.368L84.4248 14.632V1.12H87.6888V19H85.1208L75.4248 5.656L76.6248 5.392V19H73.3608ZM94.3179 19V4H89.6859V1.12H102.166V4H97.6059V19H94.3179Z" fill="#3563E9"/>
</svg>
